<?xml version="1.0" standalone="no"?>
<!DOCTYPE svg PUBLIC "-//W3C//DTD SVG 20010904//EN"
 "http://www.w3.org/TR/2001/REC-SVG-20010904/DTD/svg10.dtd">
<svg version="1.0" xmlns="http://www.w3.org/2000/svg"
 width="210.000000pt" height="210.000000pt" viewBox="0 0 210.000000 210.000000"
 preserveAspectRatio="xMidYMid meet">

<g transform="translate(0.000000,210.000000) scale(0.100000,-0.100000)"
fill="#000000" stroke="none">
<path d="M1501 1993 c21 -44 43 -167 34 -200 -4 -16 -1 -23 10 -23 19 0 20
-41 1 -103 -10 -33 -11 -47 -3 -50 18 -6 -52 -114 -104 -161 -89 -80 -207
-126 -325 -126 -24 0 -45 -3 -47 -7 -3 -5 59 -9 138 -10 173 -3 227 -19 308
-93 171 -156 188 -430 48 -765 -46 -110 -47 -144 -2 -44 66 145 111 333 111
461 0 236 -142 427 -340 456 l-55 8 65 34 c36 19 90 60 120 90 58 59 123 171
103 177 -8 3 -9 12 -3 27 4 12 11 48 15 79 6 48 5 56 -7 52 -12 -5 -16 7 -21
58 -7 72 -36 169 -53 174 -7 2 -4 -12 7 -34z"/>
<path d="M1355 1879 c-4 -5 -19 -15 -33 -21 -16 -6 -22 -12 -14 -15 6 -3 26 7
43 21 17 14 26 26 20 26 -5 0 -13 -5 -16 -11z"/>
<path d="M1245 1800 c-15 -16 -31 -27 -35 -25 -4 2 -19 -9 -35 -25 -15 -15
-33 -26 -40 -23 -8 2 -19 -6 -25 -19 -11 -22 -11 -22 5 -3 12 15 18 17 23 7 6
-8 15 -3 30 18 13 17 28 27 36 24 8 -3 23 8 36 25 12 17 28 31 36 31 8 0 14 5
14 10 0 18 -15 11 -45 -20z"/>
<path d="M1422 1744 c-12 -24 -29 -47 -37 -50 -8 -4 -15 -11 -15 -18 0 -6 -23
-34 -51 -61 -51 -50 -52 -50 -47 -20 3 17 2 44 -2 60 -6 23 -8 16 -9 -32 -1
-59 -3 -64 -42 -100 -52 -48 -75 -62 -66 -40 3 9 2 19 -3 22 -6 4 -10 -7 -10
-24 0 -20 -9 -37 -28 -53 -15 -12 -46 -52 -70 -87 l-42 -63 -1 63 c-2 47 -4
34 -10 -49 -4 -62 -10 -119 -13 -127 -7 -20 -35 -19 -67 3 -104 70 -125 82
-143 82 -15 0 -9 -6 19 -20 22 -11 59 -36 83 -55 51 -41 97 -45 177 -14 47 18
37 19 -29 3 -29 -7 -29 -7 -23 32 9 52 65 161 95 185 14 10 34 19 46 20 19 0
19 1 3 8 -16 6 -7 17 55 71 126 110 205 195 233 249 14 29 25 55 23 57 -3 2
-14 -17 -26 -42z"/>
<path d="M845 1607 c-17 -13 -17 -16 9 -73 24 -52 76 -181 76 -189 0 -2 -8 -5
-17 -7 -15 -3 -14 -5 5 -10 17 -5 22 -2 22 12 0 29 -40 152 -61 186 -24 40
-24 43 4 38 12 -2 7 1 -10 8 -18 6 -33 15 -33 19 0 14 67 21 89 10 28 -15 27
-38 -1 -44 -20 -4 -20 -4 4 -6 14 0 29 -7 32 -13 3 -7 3 1 0 17 -3 17 -13 38
-21 48 -19 20 -72 22 -98 4z"/>
<path d="M1041 1544 c0 -11 3 -14 6 -6 3 7 2 16 -1 19 -3 4 -6 -2 -5 -13z"/>
<path d="M977 1475 c3 -27 7 -52 9 -54 7 -8 2 54 -6 79 -6 17 -7 9 -3 -25z"/>
<path d="M1032 1495 c0 -16 2 -22 5 -12 2 9 2 23 0 30 -3 6 -5 -1 -5 -18z"/>
<path d="M646 1315 c-105 -43 -203 -146 -245 -260 -76 -202 -23 -514 124 -735
112 -169 306 -276 465 -255 30 4 102 10 160 14 120 8 171 28 245 93 61 53 50
62 -12 10 -57 -48 -124 -80 -187 -88 -38 -6 -46 -4 -46 9 0 14 -5 15 -26 7
-38 -15 -98 -12 -144 6 -40 16 -50 29 -28 36 8 3 7 6 -4 10 -11 5 -15 0 -14
-15 1 -14 15 -30 41 -45 l40 -23 -80 4 c-198 12 -351 132 -461 362 -60 127
-85 227 -91 365 -4 88 -1 130 12 179 45 173 158 293 316 335 41 11 47 15 24
15 -16 0 -56 -10 -89 -24z"/>
<path d="M955 1330 c3 -5 8 -10 11 -10 2 0 4 5 4 10 0 6 -5 10 -11 10 -5 0 -7
-4 -4 -10z"/>
<path d="M943 1245 c0 -38 2 -53 4 -32 2 20 2 52 0 70 -2 17 -4 1 -4 -38z"/>
<path d="M1091 1266 c7 -15 15 -23 17 -16 3 7 -3 19 -13 28 -15 16 -16 15 -4
-12z"/>
<path d="M1135 1180 c-3 -5 -1 -10 4 -10 6 0 11 5 11 10 0 6 -2 10 -4 10 -3 0
-8 -4 -11 -10z"/>
<path d="M1178 113 c7 -3 16 -2 19 1 4 3 -2 6 -13 5 -11 0 -14 -3 -6 -6z"/>
</g>
</svg>
